<?xml version="1.0" encoding="UTF-8"?>
<svg viewBox="0 0 1024 1214.47" xmlns="http://www.w3.org/2000/svg" xmlns:xlink="http://www.w3.org/1999/xlink">
	<defs>
		<style>.cls-1{stroke:#f1af8c;}.cls-1,.cls-2{fill:none;stroke-miterlimit:10;stroke-width:35px;}.cls-2{stroke:#f2ffe9;}</style>
	</defs>
	<g id="Background">
		<image height="1024" transform="translate(0 39.69)" width="1024" xlink:href="../../../../../../Documents/Design/3arabrew/Words/Sadiq/Sadiq.png"/>
	</g>
	<g id="Words">
		<g id="Heb">
			<path class="cls-1" d="M832.32,418.42c27.65,48.72,13.04,101.34-36.49,99.23-47.79-2.03-114.82-166.85-61-59.99,91.38,181.44,183.09,150.47-62.02,150.47"/>
			<path class="cls-1" d="M686.98,437.59c-121.75,10.08-223.77-15.53-144.42-2.52,58.88,9.66,86.66-2.51,78.39,42.93-8.13,44.74-7.23,78.69-21.35,135.22"/>
			<g>
				<path class="cls-1" d="M422.69,433.27c35.59,30.5,31.52,39.65,20.33,92.52"/>
				<path class="cls-1" d="M471.03,596.97c-5.27,5.27-19.09,17.78-24.36,23.04"/>
				<path class="cls-1" d="M415.72,596.97c-5.27,5.27-19.09,17.78-24.36,23.04"/>
			</g>
			<g>
				<path class="cls-1" d="M151.51,445.26c47.41-1.81,31.57-.79,67.99-2.07,57-2,101.07,6.06,98,50-6,86-68.34,127.74-106.46,140.81"/>
				<path class="cls-1" d="M167.62,527.69c2.88,30.5,2.88,31.15,2.88,57.5,0,62,1,74,.42,149.03"/>
				<path class="cls-1" d="M277.45,369.16c-5.27,5.27-19.09,17.78-24.36,23.04"/>
				<path class="cls-1" d="M222.14,369.16c-5.27,5.27-19.09,17.78-24.36,23.04"/>
			</g>
		</g>
		<g id="Ar">
			<path class="cls-2" d="M794.58,592.69c123.75-201.64,243.34-20.6,117.37,7.75-191.9,43.19-134.54-104.32-145.45-48.48-10.92,55.84-20.51,55.81-80.92,59.55"/>
			<path class="cls-2" d="M685.09,609.99c-48.46,0-96.35-216.64-76.96-137.96,19.38,78.67,19.38,94.07-9.12,122.57-28.5,28.5-97.49,25.08-94.64-38.77"/>
			<g>
				<path class="cls-2" d="M430.49,511.05c15.25,70.15,18.59,107.96-87.15,105.93"/>
				<path class="cls-2" d="M439.42,667.29c-5.27,5.27-19.09,17.78-24.36,23.04"/>
				<path class="cls-2" d="M384.11,667.29c-5.27,5.27-19.09,17.78-24.36,23.04"/>
			</g>
			<g>
				<path class="cls-2" d="M343.34,616.98c-67.44,8.53-130.6-15.43-125.7-55.1s35.42-55.71,73.3-42.89c37.88,12.82,39.44,70.32,27.44,101.22"/>
				<path class="cls-2" d="M318.61,619.8c-25.02,51.36-95.16,95.14-192.26,55.31-102.71-42.14-71.11-171.19-21.07-219.91"/>
				<path class="cls-2" d="M324.35,442.01c-5.27,5.27-19.09,17.78-24.36,23.04"/>
				<path class="cls-2" d="M269.04,442.01c-5.27,5.27-19.09,17.78-24.36,23.04"/>
			</g>
		</g>
	</g>
</svg>