<?xml version="1.0" encoding="UTF-8"?>
<svg viewBox="0 0 1024 1024" xmlns="http://www.w3.org/2000/svg" xmlns:xlink="http://www.w3.org/1999/xlink">
	<defs>
		<style>.cls-1{stroke:#51f3e4;}.cls-1,.cls-2{fill:none;stroke-miterlimit:10;stroke-width:40px;}.cls-2{stroke:#f67b9a;}</style>
	</defs>
	<g id="Background">
		<image height="1024" width="1024" xlink:href="World_bg.png"/>
	</g>
	<g id="Words">
		<g>
			<path class="cls-1" d="M728.88,695.28c280.62,15.81,225.28-403.14,223.31-229.23-1.98,173.9-189.71,239.12-189.71-49.4"/>
			<path class="cls-1" d="M642.92,415.65c0,136.95-1.78,164.42-1.98,263.82"/>
			<path class="cls-1" d="M373.17,343.52c0,31.62-15.81,84.98,69.17,84.98,105.92,0,115.61,126.67,77.07,173.9-34.98,42.88-65.61,51.78-110.67,69.17"/>
			<path class="cls-1" d="M94.53,667.61c156.12-1.98,183.78,17.79,183.78-45.45s15.81-126.47-27.67-171.93-84.58-31.62-134.38-31.62-48.61,249-21.74,249"/>
		</g>
		<g>
			<path class="cls-2" d="M654.59,667.95c148.21,2.96,441.67,0,285.56,0s-185.76-99.8,7.9-229.23"/>
			<path class="cls-2" d="M656.57,317.18c0,136.95-44.46,350.77-1.98,350.77"/>
			<path class="cls-2" d="M553.81,336.94c-23.71,1.98-39.52,9.88-37.55,100.78,1.98,90.9,26.63,215.54-63.24,229.23-111.82,17.04-158.93-11.86-176.71-51.38"/>
			<path class="cls-2" d="M97,659c98,42,186.43-8.83,180.5-42.43-5.93-33.59-23.52-104.74-67.19-126.47-35.57-17.79-77.07-13.83-106.71,35.57-36.16,60.27,30.63,123.51-64.23,216.39"/>
		</g>
	</g>
</svg>