<?xml version="1.0" encoding="UTF-8"?>
<svg viewBox="0 0 1089.95 1107.62" xmlns="http://www.w3.org/2000/svg" xmlns:xlink="http://www.w3.org/1999/xlink">
	<defs>
		<style>.cls-1{stroke:#89cdcc;}.cls-1,.cls-2,.cls-3{fill:none;stroke-linecap:round;stroke-miterlimit:10;stroke-width:10px;}.cls-2{stroke:#8acdcc;}.cls-3{stroke:#008b43;}</style>
	</defs>
	<g id="Layer_1">
		<image height="1364" transform="translate(202.12 437.98) scale(.47)" width="1479" xlink:href="Rick.png"/>
	</g>
	<g id="Words">
		<g>
			<g>
				<path class="cls-2" d="M613,202.01c33.8,1.99,54.67,3.6,59.19-2.36,10.51-13.88,5.21-44.08,5-105.38"/>
				<path class="cls-2" d="M804.23,94.27c-1.45,111.59-7.47,110.6-66.64,111.1-23.05,.19-41.73,0-65.4-2.98"/>
				<path class="cls-2" d="M739.87,94.27c0,60.99,1.25,112.34-16.82,111.59"/>
			</g>
			<path class="cls-2" d="M663.82,34.87c-27.34,25.1-25.19,28.31-27.52,58.28-5.03,64.68-13.72,108.34-29.08,109.42-14.44,1.02-28,1.47-50.33,1.12-24.07-.37-41.67,1.43-62.63-4.47"/>
			<path class="cls-2" d="M558.75,80.35c10.44,15.16,5.82,32.86,2.73,54.18-3.08,21.32-6.84,39.34-11.21,71"/>
			<path class="cls-2" d="M356.69,198.65c6.34-46.97,10.44-72.7,16.03-100.66,22.49-22.37,81.61-31.93,84.38,27.09,1.74,37.03-19.88,67.35-35.79,78.29-38.77,0-65.99-15.16-81.77,12.43-16.56,28.95-1.49,64.49-33.55,70.46"/>
			<path class="cls-2" d="M869.32,436.1c17.99-17.65-1.12-39.33-28.68-39.33s-50.5,9.42-61.69,28.58c-18.99,32.51-4,65.81,17.13,81.3,21.13,15.49,35.46,18.89,56.07,17.67,67.3-3.99-57.96,10.68-159.19,3.01"/>
			<path class="cls-2" d="M677.9,364.32c18.14,2.24,14.24,6.73,7.22,50.08-4.94,30.52-9.48,60.77-15.89,95.66-2.7,14.67,5.44,16.87,25.23,16.87"/>
			<path class="cls-2" d="M646.04,350.38c-19.76,15.32-22.85,19.57-31.77,90.29-7.94,63.01-5.83,78.95-20.9,81.84-16.33,3.13-33.44,3.97-48.17,3.97s-51.77-1.68-77.12-4.21"/>
			<path class="cls-2" d="M412.69,523.25c66.61,1.12,92.17,4.59,100.75-74.44,5.14-47.41-55.97-60.45-84.52-28.55-3.36,42.54-4.79,56.71-15.67,82.84-5.6,13.43-16.62,22.39-40.33,22.39"/>
			<g>
				<path class="cls-2" d="M373.53,525.58c-40.76,0-48.52,.25-64.56-2.01-16.04-2.26-8.46-1.77,11.47,2.13,19.93,3.91,30.33,16.96,3.89,40.57-28.09,25.08-79.9,36.41-121.29,15.72-29.14-14.57-59.54-72.42-20.07-88.42"/>
				<path class="cls-2" d="M263.54,643.64c-8.03-5.93-10.12-7.36-16.71-12.6"/>
				<path class="cls-2" d="M225.42,643.3c-8.34-6.15-10.52-7.63-17.36-13.06"/>
			</g>
		</g>
		<g>
			<g>
				<path class="cls-3" d="M606.31,206.27c29.19,.37,47.08,1.49,58.27-5.59,11.18-7.08,14.17-10.81,16.4-29.45"/>
				<path class="cls-3" d="M801.09,135.81c6.52,76.98-46.91,30.32-58.59,49.21-23.12,37.38-56.67,27.96-61.51-13.79"/>
				<path class="cls-3" d="M744.46,151.98c9.58,11.22,4.31,23.16-.29,30.99"/>
			</g>
			<path class="cls-3" d="M653.62,40.75c-27.34,25.1-21.53,55.03-23.86,85-5.03,64.68-18.63,76.97-30.32,86.99-9.57,8.2-9.34,6.68-28.33,15.41-18.39,8.45-25.85,9.94-57.66,17.89"/>
			<path class="cls-3" d="M505.53,77.7c19.39,2.46,29.04,11.14,51.41,33.88,18.25,18.55,31.49,34.28,56.32,70.13"/>
			<path class="cls-3" d="M383.4,160.04c14.17-18.83,24.05-26.66,35.98-26.47s21.81,5.22,27.4,15.28c5.59,10.07,6.71,18.45-3.73,32.81-48.65,2.98-52.19,7.83-61.33,28.71-13.37,30.56,4.47,78.66,17.15,120.79"/>
			<path class="cls-3" d="M829.9,434.18c-16.86-10.18-32.05-11.54-44.16-8.07-17.37,4.99-30.94,17.32-33.57,30.28-4.48,22,14.83,39.15,32.21,42.04,17.39,2.89,18.25,3.19,54.74-13.33,48.35-21.89-39.16,28.27-119.97,41.93"/>
			<path class="cls-3" d="M673.02,374.05c3.18,33.83,2.39,35.85,4.32,64.6,1.35,20.24,1.59,39.71,4.94,68.13,1.41,11.95,15.03,23.98,36.89,20.26"/>
			<path class="cls-3" d="M618.91,338.64c-23.83,23.88-26.87,26.54-16.69,98.4,8.91,62.88-1.97,87.95-21.35,94.35-19.38,6.4-33.61,6.4-51.47,2.96-17.86-3.45-29.67-9.11-42.99-21.92"/>
			<path class="cls-3" d="M429.94,507.51c25.84,25.32,56.81,46.4,54.7,6.65-1.43-26.9-26.26-47.8-39.85-27.83-10.12,14.87-20.74,27.81-30.75,35.31-10,7.5-19.05,7.23-48.11,6.12"/>
			<g>
				<path class="cls-3" d="M365.76,527.41c-39.54,.51-47.14,10.14-62.85,26.86-15.71,16.73,2.03,23.82,24.33,24.84,22.3,1.01,38.52,17.23,8.11,38.52-30.41,21.29-78.56,29.91-109.99,12.67-31.43-17.23-43.59-50.18-10.14-109.99"/>
				<path class="cls-3" d="M288.39,695.51c-9.49-7.12-11.97-8.83-19.76-15.12"/>
				<path class="cls-3" d="M244.08,701.27c-9.49-7.12-11.97-8.83-19.76-15.12"/>
			</g>
		</g>
		<g>
			<g>
				<path class="cls-1" d="M676.25,141.73c-.36-6.33-.63-12.49-.84-18.77-.54-16.33-.67-33.45-.9-56.29"/>
				<path class="cls-1" d="M805.49,63.69c-.99,96.43-3.98,144.15-62.13,144.15s-65.2-21.14-67.1-66.11"/>
				<path class="cls-1" d="M740.87,67.67c0,71.58,.5,75.06-61.64,75.06"/>
			</g>
			<path class="cls-1" d="M546.26,35.36c.8,43.45,.26,37.53,30.32,37.53,51.14,0,56.92-1.88,52.69,12.92-3.98,13.92-11.49,31.45-19.45,52.32-8.57,22.49-14.35,39.39-27.03,70.96"/>
			<path class="cls-1" d="M504.51,68.41c3.11,20.26,2.61,28.95,2.49,52.81-.12,23.86-.87,52.19-.87,87.61"/>
			<path class="cls-1" d="M344.48,205.63c0-46.32,1.21-101.68,1.21-131.51,61.51,0,97.67-8.02,97.67,42.87,0,37.07-.93,68.41-.93,88.85-38.77,0-50.51-.59-60.49-.59s-21.44,.37-37.47,.37"/>
			<path class="cls-1" d="M726.67,385.54c7.45,20.95,12.49,35.55,17.47,50.29s10.03,28.6,16.87,47.78c5.15,14.41,10.62,33.56,29.27,16.3,38.19-35.34,34.57-63.34,34.27-86.73-1.29-99.76,40.69,126-107.44,110.29"/>
			<path class="cls-1" d="M669.86,381.92c0,33.39,.59,36.07,.59,57.83,0,14.76,.26,29.01,.42,49.36,.08,9.65,.14,20.67,.14,33.78"/>
			<path class="cls-1" d="M536.71,350.28c0,39.52-5.07,37.08,47.07,37.29,41.66,.17,43.02,0,35.26,18.43-7.75,18.42-13.9,36.37-22.27,58.44-8.38,22.07-15.15,40.23-22.42,59.22"/>
			<path class="cls-1" d="M442.64,521.28c56.6,0,53.02-5.35,53.02-72.85,0-53.42-17.35-67.61-47.76-64.42-31.43,3.3-35.9,26.36-53.51,111.44-17.69,85.45,26.01-81.61,5.86-113.27"/>
			<g>
				<path class="cls-1" d="M335.58,382.74c0,9.33-.14,9.29-.87,14.85s0,6.41,.24,10.77,.36,9.56,.24,16.58c-.09,5.45,.15,7.44-.63,14.01s-1.18,9.73-1.97,16.36"/>
				<path class="cls-1" d="M349.39,565.42c-1.06-.78-1.34-.97-2.21-1.66"/>
				<path class="cls-1" d="M311.02,564.92c-1.15-.85-1.45-1.05-2.39-1.8"/>
			</g>
		</g>
		<g>
			<g>
				<path class="cls-3" d="M689.17,207.37c-.36-6.33-2.03-17.21-2.24-23.49-.54-16.33,.19-65.61-9.51-84.63"/>
				<path class="cls-3" d="M793,97.95c4.1,40.26-2.8,71.21-30.2,91.34s-49.02,17.52-73.63,18.08"/>
				<path class="cls-3" d="M735.77,97.58c8.57,11-8.95,38.4-20.32,62.63"/>
			</g>
			<path class="cls-3" d="M558.88,65.52c.75,35.79-4.47,37.65,23.49,36.91s46.23-3.36,46.6,9.32c.37,12.68,1.49,44.74-10.07,60.02-11.56,15.28-19.39,24.61-34.3,38.4"/>
			<path class="cls-3" d="M477.98,102.06c21.62-.37,26.47-.75,26.84,23.11,.37,23.86,0,49.96,0,85.37"/>
			<path class="cls-3" d="M355.14,206.02c-7.64-97.25,16.71-86.75-11.93-106.76,25.33,17.94,92.01-15.1,92.01,25.23,0,29.38-.74,65.5-.74,81.7-30.73,0-40.03-.47-47.94-.47s-18.7,.3-31.41,.3"/>
			<path class="cls-3" d="M718.02,413.71c20.25,9.51,21.69,9.74,30.74,35.18,3.49,9.81,8.11,23.36,15.37,42.64,5.46,14.49,30.59-1.84,46.01-23.11,13.6-18.77,19.63-41.39-2.09-50.08-44.78-17.91,105.15,10-83.19,114.42"/>
			<path class="cls-3" d="M648.46,415.16c25.67,0,25.67,2.23,25.67,23.99,0,15.32,.28,30.08,.44,51.69,.07,9.09,.12,19.39,.12,31.45"/>
			<path class="cls-3" d="M535.98,378.98c0,39.35-4.18,37.14,35.17,37.14,34.43,0,35.91,.98,35.91,20.41s1.97,32.96-12.05,49.93c-14.02,16.97-21.4,24.59-32.71,36.64"/>
			<path class="cls-3" d="M440.89,519.67c50.73,0,50.49-2.12,50.49-54.39s-33.34-60.04-57.26-42.14c-23.92,17.89-20.41,11.89-32.98,78.28-12.56,66.4,17.52-60.39-3.74-93.82"/>
			<g>
				<path class="cls-3" d="M344.87,413.92c-11.16,.73-12.01,.78-21.99,.68-12.58-.14,1.12,1.14,13.44,1.19,12.32,.05,10.95,7.59,10.88,19.1-.07,11.51,.02,13.28-.48,19.87s-1,9.65-2.58,16.14"/>
				<path class="cls-3" d="M365.44,558.65c-3.62-2.68-4.57-3.32-7.54-5.69"/>
				<path class="cls-3" d="M327.27,558.28c-3.89-2.87-4.91-3.56-8.1-6.1"/>
			</g>
		</g>
	</g>
</svg>