<svg xmlns="http://www.w3.org/2000/svg" viewBox="0 0 1024 1024"><defs><style>.cls-1{fill:#ffede9;}.cls-2{fill:none;stroke:#ff3200;stroke-width:20px;}</style></defs><g id="Background"><rect class="cls-1" width="1024" height="1024"/></g><g id="Words"><g id="Ar"><path class="cls-2" d="M541.79,395.47s31.75,339.3-129.73,186"/><path class="cls-2" d="M293.67,595.74V475.3s46.94-67.36,118.39,0S356.94,672.79,338.57,619,226.3,659,246.72,718.21"/><path class="cls-2" d="M625.17,461.37s156.41-30.9,155,69.83c-1.43,102.25-208.42,54.3-239.1-9.6"/><path class="cls-2" d="M521.25,327.64c-1.45-7.74,2-19.09,9.25-21.43,9.28-3,20.62,10.93,18.52,19.57-2.31,9.53-21.56,15.26-26.6,5.45A12.94,12.94,0,0,1,521.25,327.64Z"/></g><g id="Heb"><path class="cls-2" d="M486.89,328.23c-43.55,147.48,28.8,92.26,103.65,111.65,9.6,19.66,10.89,135.28-95.26,162.39"/><path class="cls-2" d="M267.54,573.3l-8.66-107.1s112.34-84.38,140.2-13.33c53.43,136.26-17.93,194.49-81.64,143.65C256.62,548,192.71,636.58,215.38,695.77"/><path class="cls-2" d="M669.36,571S659,414.08,745.12,423.05s69.79,30.33,60.54,146.81"/><path class="cls-2" d="M418.16,386.35c-1.44-7.73,2-19.09,9.25-21.43,9.28-3,20.62,10.93,18.52,19.58-2.31,9.52-21.55,15.26-26.6,5.44A12.83,12.83,0,0,1,418.16,386.35Z"/></g></g></svg>