<svg xmlns="http://www.w3.org/2000/svg" viewBox="0 0 1024 1024"><defs><style>.cls-1{fill:#ffede9;}.cls-2{fill:none;stroke:#ff3200;stroke-width:20px;}</style></defs><g id="Background"><rect class="cls-1" width="1024" height="1024"/></g><g id="Words"><g id="Ar"><path class="cls-2" d="M540.67,393.17s4.72,50.39,3.65,35.74c0,0,29.22,305.86-132.26,152.54" transform="translate(-8.92 -5.62)"/><path class="cls-2" d="M293.67,595.74V475.3s46.94-67.36,118.39,0S356.94,672.79,338.57,619,226.3,659,246.72,718.21" transform="translate(-8.92 -5.62)"/><path class="cls-2" d="M625.17,461.37s155-30.91,155,69.83-233,104.5-236.63,2.42" transform="translate(-8.92 -5.62)"/><path class="cls-2" d="M521.25,327.64c-1.45-7.74,2-19.09,9.25-21.43,9.28-3,20.62,10.93,18.52,19.57-2.31,9.53-24.28,10.55-26.6,5.45A15.27,15.27,0,0,1,521.25,327.64Z" transform="translate(-8.92 -5.62)"/></g><g id="Heb"><path class="cls-2" d="M486.89,328.23c-43.55,147.48,28.8,92.26,103.65,111.65,9.6,19.66,4.1,167.67-111.32,183.75" transform="translate(-8.92 -5.62)"/><path class="cls-2" d="M267.54,573.3l-8.66-107.1s112.34-84.38,140.2-13.33c53.43,136.26-17.93,194.49-81.64,143.65C256.62,548,192.71,636.58,215.38,695.77" transform="translate(-8.92 -5.62)"/><path class="cls-2" d="M669.36,571S659,414.08,745.12,423.05s69.79,30.33,60.54,146.81" transform="translate(-8.92 -5.62)"/><path class="cls-2" d="M418.16,386.35c-1.44-7.73,2-19.09,9.25-21.43,9.28-3,20.62,10.93,18.52,19.58-2.31,9.52-22.73,11.67-27.77,1.85C417.62,385.31,418.4,387.68,418.16,386.35Z" transform="translate(-8.92 -5.62)"/></g></g></svg>