<svg xmlns="http://www.w3.org/2000/svg" xmlns:xlink="http://www.w3.org/1999/xlink" viewBox="0 0 1024 1024"><defs><style>.cls-1,.cls-2{fill:none;stroke-linecap:round;stroke-width:20px;}.cls-1{stroke:#4f7fa5;}.cls-2{stroke:#001c2e;}</style></defs><g id="Background"><image width="1024" height="1024" xlink:href="dream1.png"/></g><g id="Words"><g id="Ar"><path class="cls-1" d="M540.67,393.17s4.72,50.39,3.65,35.74c0,0,29.22,305.86-132.26,152.54"/><path class="cls-1" d="M293.67,595.74V475.3s46.94-67.36,118.39,0S356.94,672.79,338.57,619,226.3,659,246.72,718.21"/><path class="cls-1" d="M625.17,461.37s155-30.91,155,69.83S548,627.6,544.38,525.53"/><path class="cls-1" d="M521.25,327.64c-1.45-7.74,2-19.09,9.25-21.43,9.28-3,20.62,10.93,18.52,19.57-2.31,9.53-21.56,15.26-26.6,5.45A12.94,12.94,0,0,1,521.25,327.64Z"/></g><g id="Heb"><path class="cls-2" d="M486.89,328.23c-43.55,147.48,28.8,92.26,103.65,111.65,9.6,19.66,10.89,135.28-95.26,162.39"/><path class="cls-2" d="M267.54,573.3,257.19,445.36S386,390.29,400.33,465.25c13,68,17.51,113.73-27.59,105.75-76.61-13.57-64.34-8.67-105.2,2.3"/><path class="cls-2" d="M669.36,571S659,414.08,745.12,423.05s69.79,30.33,60.54,146.81"/><path class="cls-2" d="M418.16,386.35c-1.44-7.73,2-19.09,9.25-21.43,9.28-3,20.62,10.93,18.52,19.58-2.31,9.52-21.55,15.26-26.6,5.44A12.83,12.83,0,0,1,418.16,386.35Z"/></g></g></svg>