<?xml version="1.0" encoding="UTF-8"?><svg xmlns="http://www.w3.org/2000/svg" xmlns:xlink="http://www.w3.org/1999/xlink" viewBox="0 0 1024 1024"><defs><style>.cls-1{stroke:#d37883;stroke-width:11px;}.cls-1,.cls-2{fill:none;stroke-linecap:square;stroke-miterlimit:10;}.cls-2{stroke:#50364f;stroke-width:30px;}</style></defs><g id="Background"><image width="1024" height="1024" xlink:href="Malka0.png"/></g><g id="Words"><g id="Heb"><path class="cls-2" d="M737.5,914.47c55,0,53,3,53-68,0-29.77-29-57-62-32-25.21,19.1-26.71,64.8-32,82-20,65,24-69-4-98"/><path class="cls-2" d="M571.5,764.47c-13,57,0,44,40,44,34,0,29.89,2.16,31,31,1,26-4,37-48,83"/><path class="cls-2" d="M443.5,791.47c-6,8-5,15.3,14,15,63-1,58,6,62,64,2.27,32.94,3,47-83.74,43.05"/><g><path class="cls-2" d="M394.5,923.47c0-28,0-50-2-91-1.8-36.97-62-21-88-30"/><path class="cls-2" d="M315.5,856.47c-3,15-4,23.96-4,36,0,9,0,15,1,30"/><path class="cls-2" d="M377.77,754.27c-6.99,6.71-9.32,8.54-13.98,12.81"/><path class="cls-2" d="M340.5,754.27c-5.82,6.1-8.15,7.93-12.81,12.81"/></g></g><g id="Ar"><path class="cls-1" d="M734.78,873.63c39.8,13.68,44.78,4.98,44.78-11.19s-19.9-37.31-34.83-13.68c-14.93,23.63-33.58,53.48-55.97,53.48-22.39,0-36.07-36.07-44.78-85.82"/><path class="cls-1" d="M634.66,672.76c-13.68,7.46-11.19,44.78,0,101.99,11.19,57.21,13.68,139.3-21.14,130.59s-101.99-83.33-159.2-104.48"/><path class="cls-1" d="M663.41,604.4c-172.88,121.89-268.65,150.49-245.02,170.39s95.77,53.48,94.53,94.53c-1.24,41.04-47.26,58.46-74.63,42.29"/><g><path class="cls-1" d="M438.29,911.61c-27.36-16.17-50.33-46.02-54.77-70.89-4.45-24.88-8.9-47.26-8.9-57.21"/><path class="cls-1" d="M376.1,820.82c-32.62,22.39-91.85,56.47-53.38,59.7,29.65,2.49,43-3.73,60.79-19.9"/><path class="cls-1" d="M376.1,721.32c-8.9,13.68-11.86,17.41-17.79,26.12"/><path class="cls-1" d="M328.66,736.24c-7.41,12.44-10.38,16.17-16.31,26.12"/></g></g></g></svg>