<?xml version="1.0" encoding="UTF-8"?><svg xmlns="http://www.w3.org/2000/svg" xmlns:xlink="http://www.w3.org/1999/xlink" viewBox="0 0 1024 1024"><defs><style>.cls-1{stroke:#2ac4f4;stroke-width:40px;}.cls-1,.cls-2{fill:none;stroke-linecap:round;stroke-linejoin:bevel;}.cls-2{stroke:#2877ea;stroke-width:20px;}</style></defs><g id="Background"><image width="1024" height="1024" xlink:href="9am0.png"/></g><g id="Words"><g id="Heb"><path class="cls-1" d="M653.39,418.24c47.37,8.88,39.58,20.58,29.61,48.85-8.88,25.16-31.21,70.44-54.77,48.85-17.76-16.28-29.61-32.57-44.41-56.25-24.62-39.4-50.57-72.45-7.4-10.36,94.55,136,138.1,138.26,28.52,136.71-15.66-.22-34.44-.52-56.64-.52"/><path class="cls-1" d="M302.53,569.23c41.45,19.24,44.41,16.28,78.45,16.28,76.97,0,75.49,1.48,75.49-34.05,0-93.26,1.48-93.26-54.77-93.26-39.97,0-106.58-8.88-106.58,45.89,0,63.65,11.84,51.81-7.4,105.1"/></g><g id="Ar"><path class="cls-2" d="M616.4,514.24c36.85-65.13,89.49-121.38,145.3-72.53,55.8,48.85,8.42,146.54-29.48,146.54s-126.35,32.57-122.13-41.45,3.16-140.62,0-65.13c-2.76,66.03-12.72,112.55-52.64,109.54-58.96-4.44-71.6,25.16-30.53-233.88"/><path class="cls-2" d="M309.88,580.85c32.57,5.92,42.95,7.62,76.97,8.88,39.97,1.48,58.05-35.97,69.57-69.57,17.76-51.81,1.48-85.85-19.24-99.18-33.62-21.61-87.33-11.84-103.62,42.93-18.14,61.01-37.01,223.52-90.3,242.76"/></g></g></svg>