<?xml version="1.0" encoding="UTF-8"?><svg xmlns="http://www.w3.org/2000/svg" viewBox="0 0 1029 1029"><defs><style>.cls-1{fill:#d0fceb;stroke-width:5px;}.cls-1,.cls-2{stroke:#2797f4;stroke-miterlimit:10;}.cls-2{fill:none;stroke-width:30px;}</style></defs><g id="Background"><rect class="cls-1" x="2.5" y="2.5" width="1024" height="1024"/></g><g id="Words"><g id="Ar"><path class="cls-2" d="M665.89,692.91c47.37,8.88,39.58,20.58,29.61,48.85-8.88,25.16-31.21,70.44-54.77,48.85-17.76-16.28-29.61-32.57-44.41-56.25-24.62-39.4-50.57-72.45-7.4-10.36,94.55,136,138.1,138.26,28.52,136.71-15.66-.22-34.44-.52-56.64-.52"/><path class="cls-2" d="M355.03,843.9c41.45,19.24,44.41,16.28,78.45,16.28,76.97,0,75.49,1.48,75.49-34.05,0-93.26,1.48-93.26-54.77-93.26-39.97,0-106.58-8.88-106.58,45.89,0,63.65,11.84,51.81-7.4,105.1"/></g><g id="Heb"><path class="cls-2" d="M627.24,308.04c51.81-65.13,125.82-121.38,204.27-72.53,78.45,48.85,11.84,146.54-41.45,146.54s-177.63,32.57-171.71-41.45c5.92-74.01,4.44-140.62,0-65.13-3.88,66.03-17.88,112.55-74.01,109.54-82.89-4.44-100.66,25.16-42.93-233.88"/><path class="cls-2" d="M242.38,374.66c32.57,5.92,42.95,7.62,76.97,8.88,39.97,1.48,58.05-35.97,69.57-69.57,17.76-51.81,1.48-85.85-19.24-99.18-33.62-21.61-87.33-11.84-103.62,42.93-18.14,61.01-37.01,223.52-90.3,242.76"/></g></g></svg>