<?xml version="1.0" encoding="UTF-8"?><svg xmlns="http://www.w3.org/2000/svg" xmlns:xlink="http://www.w3.org/1999/xlink" viewBox="0 0 1024 1106.22"><defs><style>.cls-1{stroke:#483e1c;stroke-width:14px;}.cls-1,.cls-2{fill:none;stroke-miterlimit:10;}.cls-2{stroke:#e9bc00;stroke-width:44px;}</style></defs><g id="Background"><image width="1024" height="1024" xlink:href="DALL·E 2022-09-08 08.42.45 - The sun setting between camel humps, digital art.png"/></g><g id="Words"><g id="Ar"><g><path class="cls-1" d="M609.78,394.13c1.31-12.19,30.75-10.28,60.17-5.34,38.13,6.41,76.21,17.9,52.83,10.34-54.37-17.58-106,52-145,23"/><path class="cls-1" d="M675.78,465.13c-9-5-11-6-20-11"/></g><path class="cls-1" d="M577.78,422.13c35,32,19,49,4,26-7.43-11.39-.58-41.67-13-22-12,19-52,46-63-32"/><path class="cls-1" d="M474.78,216.13c10,36,11,45,21,105s18,93-2,115-94.67,66.27-130,47c-33-18-25-81-15-94"/></g><g id="Heb"><g><path class="cls-2" d="M708.6,259.36c10.27,31.1,28.2,51.46,47.41,64.67,48.12,33.08,104.32,21.33,68.59,21.33-50,0-317,76-119,213"/><path class="cls-2" d="M773,447c-13.45-12.35-16.7-14.63-30.15-26.98"/></g><path class="cls-2" d="M643.6,246.36c-60,119-103,288-115,195-12-93-.78-154.92-33-69-15,40-37.6,151.64-68.6,93.64"/><path class="cls-2" d="M624.6,188.36c-88-107-168,8-193,115-19.72,84.41-27,107-31,132s-25.26,60.15-46,41c-26-24,13-71,45-58"/></g></g></svg>